<svg width="25" height="20" viewBox="0 0 25 20" fill="none" xmlns="http://www.w3.org/2000/svg">
<path d="M10.586 0.586C10.211 0.210901 9.70239 0.000113275 9.172 0H2C1.46957 0 0.960859 0.210714 0.585786 0.585786C0.210714 0.960859 0 1.46957 0 2V9.172C0.000113275 9.70239 0.210901 10.211 0.586 10.586L8.586 18.586C8.96106 18.9609 9.46967 19.1716 10 19.1716C10.5303 19.1716 11.0389 18.9609 11.414 18.586L18.586 11.414C18.9609 11.0389 19.1716 10.5303 19.1716 10C19.1716 9.46967 18.9609 8.96106 18.586 8.586L10.586 0.586ZM5 7C4.46943 6.99987 3.96065 6.78897 3.58558 6.41371C3.21051 6.03845 2.99987 5.52957 3 4.999C3.00013 4.46843 3.21103 3.95965 3.58629 3.58458C3.96155 3.20951 4.47043 2.99887 5.001 2.999C5.53157 2.99913 6.04035 3.21003 6.41542 3.58529C6.79049 3.96055 7.00113 4.46943 7.001 5C7.00087 5.53057 6.78997 6.03935 6.41471 6.41442C6.03945 6.78949 5.53057 7.00013 5 7Z" fill="black"/>
<path d="M12 7.488H16.488V3H19.304V7.488H23.77V10.304H19.304V14.792H16.488V10.304H12V7.488Z" fill="black" stroke="white"/>
</svg>
